PathFileType	4	(X/Y/Z)	/home/abdul/Desktop/myosuite/custom_workspace/IK/output/S4_12_3.trc
DataRate	CameraRate	NumFrames	NumMarkers	Units	OrigDataRate	OrigDataStartFrame	OrigNumFrames
200.0	200.0	28	3	mm	200.0	808	923
Frame#	Time	V_Shoulder			V_Elbow			V_Wrist		
		X1	Y1	Z1	X2	Y2	Z2	X3	Y3	Z3

808	4.035	-92.75418310481272	575.2485037760026	272.23514988278663	-199.81194167821542	436.0758109986043	27.16278440177325	-217.27059485042258	212.42147946266502	30.800524087288622
809	4.04	-92.94778434686485	575.2638484453527	272.1920697120389	-199.65241372296907	436.10565838323146	27.027806160399614	-217.17988240828583	212.49491304458377	30.368365143045406
810	4.045	-93.1377813606952	575.2812636537574	272.1516729503523	-199.49543678953574	436.1382209129955	26.897371474319097	-217.08827901427446	212.57263079408847	29.963169157349448
811	4.05	-93.324063378814	575.3008546401971	272.1139744139205	-199.3412488771694	436.1732499956154	26.771749803410366	-216.99623814781324	212.65412249897796	29.584430523175012
812	4.055	-93.50652546898249	575.3227192354925	272.07898193273434	-199.19006341431947	436.2105001959044	26.65118649593518	-216.9041837053655	212.73888979009686	29.231599016879926
813	4.06	-93.68506864901453	575.3469477843242	272.04669642467735	-199.04206963979564	436.24972995765756	26.535902828741722	-216.81251020681597	212.82644732527206	28.904082642438254
814	4.065	-93.85959998897783	575.3736230893145	272.01711199276366	-198.8974330598897	436.2907022821694	26.42609613861019	-216.72158308799888	212.91632388132194	28.601250553483283
815	4.07	-94.03003270077848	575.4028203763945	271.9902160448735	-198.75629597739305	436.3331853625057	26.321940040195962	-216.63173907551982	213.0080633532541	28.32243603877113
816	4.075	-94.19628621515069	575.4346072806173	271.96598943525464	-198.6187780882169	436.3769531728949	26.22358472574952	-216.54328663978282	213.10122566024003	28.0669395567178
817	4.08	-94.3582862461105	575.4690438515177	271.94440662696644	-198.48497714111772	436.4217860128343	26.13115734156609	-216.45650652192512	213.19538755840443	27.834031804801015
818	4.085	-94.51596484296688	575.5061825770762	271.92543587436455	-198.35496965585918	436.46747100571883	26.044762435941887	-216.37165233018266	213.29014336088676	27.62295680984679
819	4.09	-94.66926043001864	575.546068425304	271.9090394246472	-198.2288116950038	436.5138025520049	25.964482473286427	-216.28895120105543	213.38510556602955	27.43293502553373
820	4.095	-94.81811783409505	575.5887389024364	271.8951737374145	-198.1065396844184	436.5605827371022	25.89037840895953	-216.20860452052074	213.47990539491357	27.263166423838342
821	4.1	-94.96248830013009	575.6342241266997	271.8837897211279	-197.98817127750502	436.60762169436487	25.82249031936597	-216.1307887004479	213.57419323979838	27.112833567605254
822	4.105	-95.10232949498622	575.6825469166102	271.8748329853003	-197.87370625812542	436.6547379237046	25.7608380818469	-216.05565600530488	213.66763902533575	26.981104651949636
823	4.11	-95.23760549976907	575.733722892753	271.8682441071965	-197.76312747717947	436.7017585664989	25.705422098952837	-215.98333542420934	213.75993248470525	26.86713650277742
824	4.115	-95.36828679089807	575.7877605919958	271.8639589117809	-197.65640181781546	436.74851963759465	25.656224061764558	-215.91393358336984	213.8507833530741	26.770077521334798
825	4.12	-95.49435021021691	575.8446615931093	271.8619087636118	-197.55348118430027	436.7948662153332	25.61320774704261	-215.84753569397833	213.9399214810095	26.689070564363575
826	4.125	-95.61577892444696	575.9044206527773	271.86202086935333	-197.4543035096546	436.8406525906271	25.576319843129415	-215.78420653065865	214.02709687067275	26.62325575013635
827	4.13	-95.73256237430098	575.9670258510126	271.86421858955146	-197.35879377725948	436.885742376224	25.54549079969688	-215.72399143564095	214.11207963780055	26.57177318136742
828	4.135	-95.84469621358771	576.0324587450249	271.8684217583071	-197.26686505176463	436.9300085773762	25.520635696622826	-215.66691734391853	214.19465990263285	26.533765576734936
829	4.14	-95.95218223864781	576.1006945306264	271.8745470094684	-197.1784195147772	436.9733336252217	25.501655127488274	-215.61299382474985	214.27464761307786	26.508380803500472
830	4.145	-96.0550283084694	576.1717022103046	271.88250810796376	-197.09334950097076	437.0156093742522	25.488436093410577	-215.56221413499378	214.35187230351625	26.494774304467647
831	4.15	-96.15324825583649	576.2454447671422	271.89221628489855	-197.0115385304361	437.0567370653106	25.48085290316138	-215.51455627990507	214.4261827927396	26.492111413276028
832	4.155	-96.24686178986684	576.3218793438126	271.9035805750528	-196.93286233328763	437.0966272556211	25.478768075760343	-215.46998407717192	214.49744682459433	26.49956955277512
833	4.16	-96.33589439029635	576.4009574259402	271.9165081554293	-196.8571898627427	437.13519971740425	25.482033241981856	-215.42844822014226	214.5655506549591	26.51634031196115
834	4.165	-96.42037719386535	576.4826250291726	271.9309046835264	-196.78438429310427	437.17238330668005	25.49049004146018	-215.38988733636296	214.6303985887318	26.541631397682316
835	4.17	-96.50034687316013	576.5668228893683	271.94667463403584	-196.71430399929247	437.20811580389943	25.503971012326026	-215.3542290377394	214.69191247052888	26.574668458022884
